<svg width="27" height="27" viewBox="0 0 27 27" fill="none" xmlns="http://www.w3.org/2000/svg">
<path d="M13.5049 6.56787C9.67652 6.56787 6.57715 9.67062 6.57715 13.4956C6.57715 17.324 9.6799 20.4233 13.5049 20.4233C17.3333 20.4233 20.4326 17.3206 20.4326 13.4956C20.4326 9.66724 17.3299 6.56787 13.5049 6.56787ZM13.5049 17.9922C11.0198 17.9922 9.00827 15.9796 9.00827 13.4956C9.00827 11.0116 11.0209 8.99899 13.5049 8.99899C15.9889 8.99899 18.0015 11.0116 18.0015 13.4956C18.0026 15.9796 15.99 17.9922 13.5049 17.9922Z" fill="#4E4943"/>
<path d="M19.0668 0.0857866C16.5828 -0.0300884 10.4301 -0.0244635 7.94388 0.0857866C5.75913 0.188162 3.83201 0.715787 2.27838 2.26941C-0.318119 4.86591 0.0137557 8.36467 0.0137557 13.4958C0.0137557 18.7473 -0.278744 22.165 2.27838 24.7221C4.88501 27.3276 8.43438 26.9868 13.5048 26.9868C18.7068 26.9868 20.5023 26.9901 22.3416 26.278C24.8425 25.3071 26.7303 23.0718 26.9148 19.0566C27.0318 16.5715 27.025 10.42 26.9148 7.93379C26.692 3.19416 24.1484 0.319787 19.0668 0.0857866ZM22.9986 23.0043C21.2965 24.7064 18.9351 24.5545 13.4721 24.5545C7.84713 24.5545 5.59151 24.6378 3.94563 22.9874C2.05001 21.1008 2.39313 18.0711 2.39313 13.4778C2.39313 7.26217 1.75526 2.78579 7.99338 2.46629C9.42663 2.41566 9.84851 2.39879 13.4564 2.39879L13.507 2.43254C19.5021 2.43254 24.2058 1.80479 24.4881 8.04179C24.5523 9.46492 24.5669 9.89242 24.5669 13.4946C24.5658 19.0544 24.6715 21.3235 22.9986 23.0043Z" fill="#4E4943"/>
<path d="M20.7068 7.91304C21.6008 7.91304 22.3256 7.18824 22.3256 6.29416C22.3256 5.40008 21.6008 4.67529 20.7068 4.67529C19.8127 4.67529 19.0879 5.40008 19.0879 6.29416C19.0879 7.18824 19.8127 7.91304 20.7068 7.91304Z" fill="#4E4943"/>
</svg>
