<svg width="25" height="25" viewBox="0 0 25 25" fill="none" xmlns="http://www.w3.org/2000/svg">
<g clip-path="url(#clip0_802_2)">
<path d="M6.56627 20.6175L7.47127 21.1462C8.99744 22.0363 10.7333 22.5036 12.5 22.5C14.4778 22.5 16.4112 21.9135 18.0557 20.8147C19.7002 19.7159 20.9819 18.1541 21.7388 16.3268C22.4957 14.4996 22.6937 12.4889 22.3079 10.5491C21.922 8.60929 20.9696 6.82746 19.5711 5.42893C18.1726 4.03041 16.3907 3.078 14.4509 2.69215C12.5111 2.3063 10.5004 2.50433 8.67318 3.2612C6.84592 4.01808 5.28413 5.29981 4.18532 6.9443C3.08651 8.58879 2.50002 10.5222 2.50002 12.5C2.49637 14.2673 2.96411 16.0037 3.85502 17.53L4.38252 18.435L3.56627 21.4363L6.56627 20.6175ZM0.00501673 25L1.69502 18.79C0.581439 16.8811 -0.00361329 14.71 1.67903e-05 12.5C1.67903e-05 5.59625 5.59627 0 12.5 0C19.4038 0 25 5.59625 25 12.5C25 19.4037 19.4038 25 12.5 25C10.291 25.0036 8.12084 24.419 6.21252 23.3063L0.00501673 25ZM7.98877 6.635C8.15627 6.6225 8.32502 6.6225 8.49252 6.63C8.56002 6.635 8.62752 6.6425 8.69502 6.65C8.89377 6.6725 9.11252 6.79375 9.18627 6.96125C9.55877 7.80625 9.92127 8.6575 10.2713 9.51125C10.3488 9.70125 10.3025 9.945 10.155 10.1825C10.0536 10.3431 9.94384 10.4983 9.82627 10.6475C9.68502 10.8287 9.38127 11.1613 9.38127 11.1613C9.38127 11.1613 9.25752 11.3088 9.30502 11.4925C9.32252 11.5625 9.38002 11.6638 9.43252 11.7488L9.50627 11.8675C9.82627 12.4013 10.2563 12.9425 10.7813 13.4525C10.9313 13.5975 11.0775 13.7463 11.235 13.885C11.82 14.4012 12.4825 14.8225 13.1975 15.135L13.2038 15.1375C13.31 15.1837 13.3638 15.2088 13.5188 15.275C13.5963 15.3075 13.6763 15.3363 13.7575 15.3575C13.8415 15.3789 13.9299 15.3749 14.0116 15.3459C14.0932 15.317 14.1645 15.2645 14.2163 15.195C15.1213 14.0988 15.2038 14.0275 15.2113 14.0275V14.03C15.2741 13.9714 15.3488 13.9269 15.4303 13.8995C15.5118 13.8721 15.5982 13.8625 15.6838 13.8713C15.7588 13.8763 15.835 13.89 15.905 13.9213C16.5688 14.225 17.655 14.6987 17.655 14.6987L18.3825 15.025C18.505 15.0838 18.6163 15.2225 18.62 15.3562C18.625 15.44 18.6325 15.575 18.6038 15.8225C18.5638 16.1462 18.4663 16.535 18.3688 16.7388C18.302 16.8778 18.2134 17.0052 18.1063 17.1162C17.9801 17.2487 17.842 17.3692 17.6938 17.4762C17.6425 17.5148 17.5904 17.5523 17.5375 17.5887C17.382 17.6874 17.2223 17.7791 17.0588 17.8638C16.7369 18.0347 16.3815 18.1328 16.0175 18.1512C15.7863 18.1637 15.555 18.1812 15.3225 18.1688C15.3125 18.1688 14.6125 18.06 14.6125 18.06C12.8353 17.5925 11.1918 16.7168 9.81252 15.5025C9.53002 15.2538 9.26877 14.9862 9.00127 14.72C7.88877 13.6138 7.04877 12.42 6.53877 11.2925C6.27773 10.7391 6.13672 10.1368 6.12502 9.525C6.11986 8.76606 6.36795 8.02708 6.83002 7.425C6.92127 7.3075 7.00752 7.185 7.15627 7.04375C7.31502 6.89375 7.41502 6.81375 7.52377 6.75875C7.66836 6.68629 7.8261 6.64377 7.98752 6.63375L7.98877 6.635Z" fill="#4E4943"/>
</g>
<defs>
<clipPath id="clip0_802_2">
<rect width="25" height="25" fill="white"/>
</clipPath>
</defs>
</svg>
